<svg width="358" height="386" viewBox="0 0 358 386" fill="none" xmlns="http://www.w3.org/2000/svg">
<path d="M98.0764 12.1688C110.491 2.6023 123.848 -0.921791 136.833 0.200073C153.91 1.67567 168.67 10.9406 179.612 21.1415C190.056 11.2678 204.207 2.40609 220.869 1.04382C246.202 -1.02696 269.778 14.395 288.862 49.535C300.643 52.8027 314.703 59.6971 325.658 71.8505C338.656 86.2693 346.091 106.808 341.838 133.554C351.084 145.978 359.064 164.465 357.476 185.998C355.541 212.217 339.725 239.419 302.915 263.237L300.404 264.862L297.461 265.4C288.932 266.958 278.685 268.276 267.767 268.932V301.408C277.994 306.613 285 317.238 285 329.499C285 346.896 270.897 360.999 253.5 360.999C236.103 360.999 222 346.896 222 329.499C222 317.833 228.342 307.648 237.767 302.204V268.812C223.475 267.729 208.885 264.932 196.533 259.128C195.942 258.85 195.353 258.562 194.767 258.267V326.941C204.447 332.316 211 342.642 211 354.499C211 371.896 196.897 385.999 179.5 385.999C162.103 385.999 148 371.896 148 354.499C148 342.425 154.794 331.94 164.767 326.652V259.034C164.057 259.394 163.344 259.743 162.626 260.078C150.071 265.941 135.254 268.649 120.767 269.584V299.942C130.447 305.317 137 315.642 137 327.499C137 344.896 122.897 358.999 105.5 358.999C88.1034 358.999 74.0002 344.896 74.0002 327.499C74.0005 315.425 80.7942 304.939 90.7668 299.652V269.342C79.7657 268.538 69.4437 267.061 60.8498 265.357L59.0451 265L57.3801 264.217C19.2568 246.276 2.78855 219.853 0.327332 192.619C-1.74578 169.677 6.32197 148.361 15.1945 134.001C12.4348 106.394 20.6868 85.6782 33.8332 71.3339C44.6195 59.5648 58.0117 52.8207 69.3693 49.6034C77.814 32.7776 87.388 20.4051 98.0764 12.1688ZM179.5 343C173.701 343 169 347.701 169 353.5C169 359.299 173.702 364 179.5 364C185.299 364 190 359.298 190 353.5C190 347.701 185.299 343 179.5 343ZM252.5 319C246.701 319 242 323.701 242 329.5C242 335.299 246.701 340 252.5 340C258.299 340 263 335.299 263 329.5C263 323.701 258.299 319 252.5 319ZM106.5 315.999C100.702 315.999 96.0007 320.7 96.0002 326.499C96.0002 332.298 100.701 336.999 106.5 336.999C112.299 336.999 117 332.298 117 326.499C117 320.7 112.299 315.999 106.5 315.999ZM134.25 30.0887C128.911 29.6276 122.979 30.8528 116.388 35.9315C109.473 41.2599 101.415 51.193 93.4318 68.829L90.0754 76.245L82.0285 77.4725C74.931 78.5553 64.0248 82.7937 55.9504 91.6034C48.4325 99.8062 42.2301 113.169 45.5978 135.397L46.507 141.401L42.9846 146.347C35.6978 156.576 28.7064 173.32 30.2062 189.919C31.5528 204.818 39.9567 222.344 68.506 236.28C79.0174 238.253 92.3589 239.83 105.928 239.975C123.094 240.159 138.942 238.028 149.931 232.896C155.25 230.412 158.842 227.498 161.102 224.362C163.25 221.381 164.767 217.423 164.767 211.644V152.981C160.165 153.187 155.496 151.534 151.983 148.022L105.981 102.02C99.3417 95.3815 99.3417 84.6183 105.981 77.9794C112.62 71.3407 123.383 71.3405 130.022 77.9794L164.767 112.724V48.9149C156.373 39.1435 144.928 31.0114 134.25 30.0887ZM265.321 69.2948C248.163 34.6058 232.362 30.2047 223.314 30.9442C213.134 31.7766 202.481 39.437 194.767 48.746V211.644C194.767 217.042 196.207 220.763 198.286 223.615C200.488 226.636 204.02 229.5 209.291 231.976C220.159 237.083 235.826 239.342 252.8 239.379C265.892 239.407 278.787 238.115 289.118 236.399C318.275 216.8 326.521 197.844 327.558 183.791C328.682 168.554 321.649 155.234 314.788 147.865L309.36 142.034L311.151 134.271C316.131 112.688 310.527 99.8717 303.375 91.9374C295.519 83.2225 284.194 78.7137 276.378 77.453L268.748 76.2216L265.321 69.2948ZM76.4846 141.062C83.5195 134.257 94.6707 134.338 101.609 141.153L101.936 141.482L131.936 172.482L131.938 172.484C138.485 179.252 138.708 189.922 132.453 196.959L108.453 223.959C101.952 231.273 90.8255 232.035 83.3928 225.758L83.0412 225.453C75.6112 218.848 74.9432 207.47 81.5471 200.041L94.4533 185.519L76.0646 166.517L76.0627 166.516C69.1493 159.369 69.3425 147.974 76.4826 141.064L76.4846 141.062ZM287 157C296.941 157 305 165.059 305 175C305 184.941 296.941 193 287 193H272.279L247.511 216.942L247.51 216.943C240.361 223.852 228.966 223.656 222.058 216.511L222.057 216.51C215.147 209.361 215.344 197.965 222.489 191.057L252.489 162.057L252.745 161.81L253.013 161.576L253.231 161.385L253.508 161.141L253.798 160.91C256.974 158.385 260.921 157 265 157H287ZM234.385 86.6034C240.581 79.7451 251.094 79.1094 258.067 85.0936L258.396 85.3837C265.363 91.6773 265.909 102.428 259.616 109.394L231.616 140.394C225.323 147.362 214.572 147.907 207.606 141.615H207.605C200.637 135.321 200.092 124.571 206.385 117.604L234.385 86.6044V86.6034Z" fill="#2C6764"/>
</svg>
