<svg width="1194" height="400" viewBox="0 0 1194 400" fill="none" xmlns="http://www.w3.org/2000/svg">
<path d="M1003 175C1002.42 194.688 993.404 243.651 962 282" stroke="#2C6764" stroke-width="47"/>
<path d="M1126 175C1126.6 194.688 1135.83 243.651 1168 282" stroke="#2C6764" stroke-width="45"/>
<path d="M1065.61 72.2502L1064.72 300" stroke="#2C6764" stroke-width="46"/>
<path d="M460 272V106H625V272H542.5H460Z" stroke="#2C6764" stroke-width="45" stroke-linejoin="round"/>
<path d="M711 99H753.5H796" stroke="#2C6764" stroke-width="45" stroke-linejoin="round"/>
<path d="M711 164H796" stroke="#2C6764" stroke-width="45" stroke-linejoin="round"/>
<path d="M1131 81.8304C1131 107 1157.99 107 1157.99 107C1157.99 107 1183 107 1183 81.8303C1183 56.6607 1166.19 54.8138 1155.3 55.0127C1146.71 55.1695 1131 60.7216 1131 81.8304Z" stroke="#FB734D" stroke-width="21"/>
<path d="M870 73V116" stroke="#2C6764" stroke-width="30" stroke-linejoin="round"/>
<path d="M908 72V116" stroke="#2C6764" stroke-width="30" stroke-linejoin="round"/>
<path d="M882 145C879.637 193.572 842.13 289.112 711 282.692" stroke="#2C6764" stroke-width="47" stroke-linejoin="round"/>
<path d="M961 131H1171" stroke="#2C6764" stroke-width="42"/>
<path d="M98.0776 12.1696C110.493 2.60289 123.849 -0.921061 136.834 0.200806C153.912 1.67637 168.672 10.9413 179.613 21.1422C190.058 11.2684 204.209 2.40684 220.871 1.04456C246.204 -1.02632 269.779 14.3955 288.864 49.5358C300.644 52.8034 314.704 59.6978 325.66 71.8512C338.657 86.27 346.092 106.809 341.839 133.554C351.086 145.978 359.065 164.465 357.477 185.999C355.543 212.218 339.726 239.42 302.917 263.238L300.406 264.863L297.462 265.401C288.933 266.958 278.687 268.277 267.768 268.933V301.408C277.995 306.612 285.001 317.237 285.001 329.499C285.001 346.896 270.898 360.999 253.501 360.999C236.105 360.998 222.001 346.896 222.001 329.499C222.002 317.833 228.344 307.648 237.768 302.204V268.813C223.477 267.729 208.887 264.933 196.535 259.129C195.943 258.851 195.354 258.563 194.768 258.268V326.942C204.448 332.316 211.001 342.642 211.001 354.499C211.001 371.896 196.898 385.999 179.501 385.999C162.105 385.998 148.001 371.896 148.001 354.499C148.002 342.425 154.796 331.939 164.768 326.652V259.035C164.059 259.395 163.345 259.744 162.627 260.079C150.073 265.942 135.255 268.649 120.768 269.585V299.942C130.449 305.316 137.001 315.642 137.001 327.5C137.001 344.896 122.898 358.999 105.501 359C88.1047 358.999 74.0015 344.896 74.0015 327.5C74.0016 315.426 80.7955 304.94 90.7681 299.653V269.342C79.767 268.539 69.445 267.062 60.8511 265.358L59.0464 265.001L57.3813 264.217C19.2582 246.277 2.7899 219.854 0.328613 192.62C-1.74457 169.678 6.32326 148.361 15.1958 134.002C12.436 106.394 20.6881 85.679 33.8345 71.3346C44.6208 59.5654 58.0129 52.8214 69.3706 49.6041C77.8153 32.7783 87.3893 20.4059 98.0776 12.1696ZM179.501 343C173.703 343 169.002 347.701 169.001 353.5C169.002 359.298 173.703 363.999 179.501 364C185.3 363.999 190.001 359.298 190.001 353.5C190.001 347.701 185.3 343 179.501 343ZM252.501 319C246.703 319 242.002 323.701 242.001 329.5C242.002 335.298 246.703 339.999 252.501 340C258.3 339.999 263.001 335.298 263.001 329.5C263.001 323.701 258.3 319 252.501 319ZM106.501 316C100.703 316 96.0017 320.701 96.0015 326.5C96.0015 332.298 100.703 336.999 106.501 337C112.3 336.999 117.001 332.298 117.001 326.5C117.001 320.701 112.3 316 106.501 316ZM134.251 30.0895C128.912 29.6283 122.98 30.8534 116.389 35.9323C109.474 41.2607 101.416 51.1936 93.4331 68.8297L90.0767 76.2457L82.0298 77.4733C74.9323 78.5561 64.0261 82.7942 55.9517 91.6041C48.4338 99.807 42.2313 113.169 45.5991 135.398L46.5083 141.402L42.9858 146.347C35.699 156.577 28.7076 173.32 30.2075 189.92C31.5541 204.819 39.9581 222.345 68.5073 236.281C79.0187 238.254 92.3602 239.831 105.929 239.976C123.095 240.16 138.943 238.029 149.932 232.897C155.251 230.413 158.844 227.498 161.103 224.363C163.251 221.382 164.768 217.424 164.768 211.645V152.981C160.166 153.187 155.497 151.534 151.984 148.023L105.982 102.021C99.3431 95.3822 99.3431 84.619 105.982 77.9801C112.621 71.3412 123.384 71.3412 130.023 77.9801L164.768 112.725V48.9156C156.374 39.1442 144.929 31.0121 134.251 30.0895ZM265.323 69.2955C248.164 34.6062 232.363 30.2053 223.315 30.9449C213.135 31.7774 202.483 39.4376 194.768 48.7467V211.645C194.768 217.043 196.208 220.763 198.288 223.616C200.49 226.637 204.022 229.5 209.292 231.977C220.161 237.084 235.828 239.342 252.801 239.38C265.893 239.408 278.789 238.116 289.12 236.4C318.276 216.801 326.522 197.845 327.559 183.792C328.683 168.554 321.65 155.234 314.79 147.866L309.361 142.035L311.152 134.272C316.132 112.689 310.528 99.8725 303.376 91.9381C295.52 83.2231 284.196 78.7144 276.379 77.4537L268.75 76.2223L265.323 69.2955ZM76.4858 141.062C83.5206 134.257 94.6719 134.338 101.61 141.153L101.937 141.482L131.937 172.482L131.939 172.484C138.486 179.252 138.709 189.922 132.455 196.959L108.455 223.959C101.953 231.273 90.8269 232.034 83.394 225.757L83.0425 225.453C75.6127 218.848 74.9444 207.47 81.5483 200.041L94.4546 185.519L76.0659 166.517L76.064 166.515C69.1509 159.369 69.3437 147.974 76.4839 141.064L76.4858 141.062ZM287.466 157.005C297.193 157.252 305.001 165.214 305.001 175C305.001 184.941 296.943 193 287.001 193H272.28L247.512 216.942L247.511 216.943C240.362 223.852 228.967 223.656 222.059 216.51L222.058 216.509C215.149 209.361 215.345 197.965 222.491 191.057L252.491 162.057L252.747 161.81L253.014 161.576L253.232 161.384L253.509 161.14L253.799 160.91C256.975 158.385 260.922 157 265.001 157H287.001L287.466 157.005ZM234.386 86.6041C240.582 79.7455 251.096 79.11 258.068 85.0944L258.397 85.3844C265.364 91.6781 265.91 102.428 259.618 109.395L231.618 140.395C225.324 147.363 214.574 147.908 207.607 141.616H207.606C200.638 135.322 200.094 124.572 206.386 117.605L234.386 86.6051V86.6041Z" fill="#2C6764"/>
</svg>
